<svg>

    <svg id="button-arrow" viewBox="0 0 9 6"  xmlns="http://www.w3.org/2000/svg">
        <path fill-rule="evenodd" clip-rule="evenodd" d="M8.48056 0.722531C8.96872 1.21069 8.96872 2.00214 8.48056 2.4903L5.81127 5.15959C5.45216 5.51657 4.96637 5.71694 4.46001 5.71694C3.95366 5.71694 3.46787 5.51657 3.10876 5.15959L3.10613 5.15697L0.366129 2.41696C-0.122026 1.92881 -0.122026 1.13735 0.366129 0.649198C0.854284 0.161042 1.64574 0.161042 2.1339 0.649197L4.46001 2.97531L6.7128 0.722531C7.20095 0.234375 7.99241 0.234375 8.48056 0.722531Z" />
    </svg>


    <svg id="email" viewBox="0 0 16 12" fill="none" xmlns="http://www.w3.org/2000/svg">
        <path fill-rule="evenodd" clip-rule="evenodd" d="M3.14403 2.08337L7.73704 6.67638C7.79121 6.73061 7.85584 6.77394 7.92666 6.80329C7.99747 6.83265 8.07338 6.84776 8.15004 6.84776C8.2267 6.84776 8.30261 6.83265 8.37342 6.80329C8.44412 6.77398 8.50837 6.73105 8.56249 6.67694C8.56257 6.67685 8.5624 6.67702 8.56249 6.67694L13.1384 2.08337H3.14403ZM13.9167 3.42748L9.624 7.73674C9.43051 7.93044 9.20075 8.08411 8.94783 8.18895C8.69492 8.29379 8.42382 8.34776 8.15004 8.34776C7.87626 8.34776 7.60516 8.29379 7.35225 8.18895C7.09946 8.08416 6.8698 7.9306 6.67638 7.73704C6.67628 7.73694 6.67648 7.73714 6.67638 7.73704L2.08337 3.14403V9.33338C2.08337 9.65554 2.34454 9.91671 2.66671 9.91671H13.3334C13.6555 9.91671 13.9167 9.65554 13.9167 9.33338V3.42748ZM0.583374 2.66671C0.583374 1.51611 1.51611 0.583374 2.66671 0.583374H13.3334C14.484 0.583374 15.4167 1.51611 15.4167 2.66671V9.33338C15.4167 10.484 14.484 11.4167 13.3334 11.4167H2.66671C1.51611 11.4167 0.583374 10.484 0.583374 9.33338V2.66671Z" fill="#151515"/>
    </svg>



</svg>